<?xml version="1.0" encoding="utf-8"?>
<!-- Svg Vector Icons : http://www.onlinewebfonts.com/icon -->
<!DOCTYPE svg PUBLIC "-//W3C//DTD SVG 1.1//EN" "http://www.w3.org/Graphics/SVG/1.1/DTD/svg11.dtd">
<svg version="1.1" xmlns="http://www.w3.org/2000/svg" xmlns:xlink="http://www.w3.org/1999/xlink" x="0px" y="0px" viewBox="0 0 256 256" enable-background="new 0 0 256 256" xml:space="preserve">
<metadata> Svg Vector Icons : http://www.onlinewebfonts.com/icon </metadata>
<g><g><path fill="#000000" d="M156.5,137.2c19.8-11.3,33.4-33.9,33.4-59.9c0-37.3-27.7-67.6-62-67.6C93.8,9.7,66,40,66,77.3c0,26.1,13.6,48.7,33.4,59.9c-49.7,12.4-87,56.1-89.4,109h11h0.3h213.5h0.3h11C243.5,193.4,206.2,149.6,156.5,137.2z M77.3,76.3C77.3,45.7,100,21,128,21c28,0,50.7,24.8,50.7,55.3c0,30.5-22.7,55.3-50.7,55.3C100,131.6,77.3,106.8,77.3,76.3z M22.5,235c8.1-51.1,52.2-90.1,105.5-90.1c53.3,0,97.4,39.1,105.5,90.1H22.5z"/></g></g>
</svg>